<svg fill="none" height="34" viewBox="0 0 36 34" width="36" xmlns="http://www.w3.org/2000/svg"><path d="m2.76904 7.19971h31.01536v24.74439c0 .7105-.5759 1.2864-1.2863 1.2864h-28.4427c-.71044 0-1.28636-.5759-1.28636-1.2864z" fill="#008ca9"/><path d="m13.2925 23.4402c0-.7105.5759-1.2864 1.2863-1.2864h8.5043c.7104 0 1.2863.5759 1.2863 1.2864v9.7905h-11.0769z" fill="#f1c34e"/><path d="m5.06618.477183c.18071-.296362.50275-.477183.84986-.477183h25.17626c.3806 0 .7278.216967.8947.558988l4.013 8.226722h-36z" fill="#008ca9"/><path clip-rule="evenodd" d="m.00499811 8.78613c-.0033197.07091-.00499811.14226-.00499811.21399 0 2.48528 2.01472 4.49998 4.5 4.49998s4.5-2.0147 4.5-4.49998c0-.07173-.00168-.14308-.005-.21399zm8.99997189 0c-.0033.0707-.00497.14183-.00497.21335 0 2.48532 2.0147 4.50002 4.5 4.50002s4.5-2.0147 4.5-4.50002c0 2.48532 2.0147 4.50002 4.5 4.50002s4.5-2.0147 4.5-4.50002c0 2.48532 2.0147 4.50002 4.5 4.50002s4.5-2.0147 4.5-4.50002c0-.07152-.0017-.14265-.005-.21335h-8.99c-.0033.0707-.005.14183-.005.21335 0-.07152-.0017-.14265-.005-.21335h-8.99c-.0033.0707-.005.14183-.005.21335 0-.07152-.0017-.14265-.005-.21335z" fill="#40ceec" fill-rule="evenodd"/></svg>