<svg fill="none" height="33" viewBox="0 0 36 33" width="36" xmlns="http://www.w3.org/2000/svg"><path d="m34.1039 0h-27.96877c-.18703 0-.35486.114678-.42292.288839l-1.47246 3.769471v24.26359c0 .6726.54526 1.2178 1.21779 1.2178h29.32406c.6726 0 1.2178-.5452 1.2178-1.2178v-24.26359l-1.4726-3.769471c-.068-.174161-.2359-.288839-.4229-.288839z" fill="#40ceec"/><path d="m34.7816 29.54h-29.32406c-.6726 0-1.21779-.5453-1.21779-1.2178v-24.26361h31.75965v24.26361c0 .6726-.5453 1.2178-1.2178 1.2178z" fill="#008ca9"/><path d="m32.8009 4.05859v21.92761c0 1.0925-.8856 1.9781-1.9781 1.9781h-25.36526c-.6726 0-1.21779-.5452-1.21779-1.2178v1.5757c0 .6726.54526 1.2178 1.21779 1.2178h29.32406c.6726 0 1.2178-.5452 1.2178-1.2178v-24.26361z" fill="#008ca9"/><path d="m22.2093 15.5953c.1966.6397-.1628 1.3115-.7958 1.5075l-5.2461 1.6237.3094.1261 3.5008 1.4275 5.7947 2.3628c.703.2866 1.0406 1.089.7539 1.7921-.2866.703-1.089 1.0406-1.7921.7539l1.3438.548c.7031.2866 1.0406 1.089.754 1.7921-.2867.703-1.0891 1.0406-1.7921.7539l-1.3438-.5479c.6948.2833 1.0326 1.0703.7637 1.7674-.2774.7191-1.1169 1.058-1.8306.7669l-1.1206-.4569c.7031.2866 1.0406 1.089.754 1.7921-.2867.703-1.0891 1.0406-1.7921.7539l-10.1495-4.1384c-.99728-.4066-1.87427-1.061-2.54807-1.9012-.67379-.8403-1.55079-1.4947-2.54808-1.9013l-4.20864-1.7161 2.94162-7.2142 3.64333 1.4855c1.21955.4974 13.18044-2.1964 13.18044-2.1964.6149-.129 1.2433.2185 1.4278.819z" fill="#fed9a8"/><path d="m22.2093 15.5953c.1966.6397-.1628 1.3115-.7958 1.5075l-5.2461 1.6237.3094.1261 3.5008 1.4275 5.7947 2.3628c.703.2866 1.0406 1.089.7539 1.7921-.2866.703-1.089 1.0406-1.7921.7539l1.3438.548c.7031.2866 1.0406 1.089.754 1.7921-.2867.703-1.0891 1.0406-1.7921.7539l-1.3438-.5479c.6948.2833 1.0326 1.0703.7637 1.7674-.2774.7191-1.1169 1.058-1.8306.7669l-1.1206-.4569c.7031.2866 1.0406 1.089.754 1.7921-.2867.703-1.0891 1.0406-1.7921.7539l-10.1495-4.1384c-.99728-.4066-1.87427-1.061-2.54807-1.9012-.67379-.8403-1.55079-1.4947-2.54808-1.9013l-4.20864-1.7161 2.94162-7.2142 3.64333 1.4855c1.21955.4974 13.18044-2.1964 13.18044-2.1964.6149-.129 1.2433.2185 1.4278.819z" fill="#fed9a8"/><path d="m22.2093 15.5953c.1966.6397-.1628 1.3115-.7958 1.5075l-5.2461 1.6237.3094.1261 3.5008 1.4275 5.7947 2.3628c.703.2866 1.0406 1.089.7539 1.7921-.2866.703-1.089 1.0406-1.7921.7539l1.3438.548c.7031.2866 1.0406 1.089.754 1.7921-.2867.703-1.0891 1.0406-1.7921.7539l-1.3438-.5479c.6948.2833 1.0326 1.0703.7637 1.7674-.2774.7191-1.1169 1.058-1.8306.7669l-1.1206-.4569c.7031.2866 1.0406 1.089.754 1.7921-.2867.703-1.0891 1.0406-1.7921.7539l-10.1495-4.1384c-.99728-.4066-1.87427-1.061-2.54807-1.9012-.67379-.8403-1.55079-1.4947-2.54808-1.9013l-4.20864-1.7161 2.94162-7.2142 3.64333 1.4855c1.21955.4974 13.18044-2.1964 13.18044-2.1964.6149-.129 1.2433.2185 1.4278.819z" fill="#be8474"/><g fill="#f4c892"><path d="m22.2648 31.6016c.0018-.0043.0035-.0086.0052-.013.0007-.0017.0014-.0035.0021-.0052.0014-.0036.0028-.0072.0041-.0108.0008-.0021.0016-.0042.0023-.0063.0012-.0032.0024-.0064.0036-.0097.0009-.0024.0018-.0048.0026-.0072.0011-.0029.0021-.0058.0031-.0087.0009-.0024.0017-.0049.0025-.0074.001-.0029.0021-.0059.0031-.0088.0008-.0025.0017-.0051.0026-.0077.0009-.0027.0017-.0054.0026-.0081s.0018-.0054.0026-.008c.0009-.0028.0018-.0055.0026-.0083.0008-.0026.0017-.0051.0024-.0077.0009-.0029.0018-.0058.0026-.0087.0008-.0025.0016-.0051.0023-.0076.0008-.0027.0015-.0054.0023-.008.0008-.0029.0016-.0058.0025-.0086.0007-.0025.0013-.005.002-.0075.0008-.0028.0016-.0057.0023-.0086.0007-.0025.0014-.0051.002-.0075.0008-.003.0015-.0059.0022-.0088.0007-.0025.0013-.0049.0019-.0075.0007-.0029.0014-.0058.0021-.0087.0005-.0022.001-.0044.0015-.0066.0008-.0032.0016-.0065.0023-.0098.0003-.0012.0005-.0024.0008-.0036.003-.0133.0057-.0265.0082-.0398.0003-.0014.0006-.0028.0009-.0043.0007-.0038.0014-.0076.0021-.0115.0003-.0015.0006-.003.0008-.0045.0008-.004.0015-.008.0021-.012.0002-.0013.0004-.0025.0006-.0038.0007-.004.0014-.0081.0019-.0122.0002-.0013.0004-.0026.0006-.0039.0007-.0042.0013-.0083.0019-.0125.0001-.0011.0003-.0022.0005-.0033.0006-.0045.0012-.0089.0017-.0133.0001-.0007.0002-.0015.0003-.0022.0006-.0046.0012-.0093.0017-.0139.0001-.0006.0001-.0012.0002-.0018.0006-.0048.0011-.0095.0016-.0142.0001-.0005.0001-.0009.0002-.0013.0005-.0049.0009-.0099.0014-.0148 0-.0002 0-.0004.0001-.0005.0506-.54-.2246-1.0726-.7158-1.3372-.0076-.0041-.0154-.0077-.023-.0116-.0345-.0177-.0696-.0345-.1061-.0496-.0122-.0051-.0246-.0104-.0366-.0152l-5.1443-2.0977c-.272.6671.0464 1.4285.7123 1.7033l4.0802 1.6841c.4306.1756.7258.5606.8227.982.1321-.1283.2405-.2854.3144-.4669.0004-.0009.0008-.002.0012-.003z"/><path d="m26.3607 24.7325c.0663-.0899.1225-.1893.1666-.2974.2867-.7031-.0509-1.5055-.754-1.7921l-5.7947-2.3628-3.5008-1.4275-.3093-.1261c.7811 1.3532 1.9905 2.4079 3.4373 2.9979l6.1675 2.5148c.2158.0881.437.304.5874.4932z"/><path d="m26.8516 26.5382c-.0038-.0103-.0077-.0206-.0117-.0308-.002-.0052-.0041-.0102-.0061-.0154-.0042-.0102-.0084-.0203-.0128-.0303-.0131-.0303-.0274-.0601-.0427-.0893-.0076-.0147-.0155-.0291-.0237-.0435-.0054-.0095-.011-.019-.0166-.0285-.0057-.0095-.0115-.0189-.0174-.0282-.0059-.0092-.012-.0185-.0181-.0277-.0583-.0871-.1267-.1679-.2045-.2405-.0041-.0038-.0082-.0076-.0124-.0114-.0249-.0226-.0507-.0444-.0774-.0653-.0044-.0035-.0089-.007-.0134-.0104-.009-.0069-.0182-.0136-.0273-.0203-.0046-.0033-.0092-.0066-.0139-.0099-.0836-.059-.1753-.1094-.2742-.1498l-1.3438-.5479h.0001l-6.3251-2.5791c-.2799.6864.0504 1.4698.7374 1.7485l6.9315 2.8131c.279.1137.505.3195.6529.5575.0385-.0628.0724-.1296.101-.2.0538-.1318.0856-.2671.0971-.4019.001-.0113.0018-.0224.0025-.0337.0115-.1907-.0172-.3796-.0814-.5552z"/></g><path d="m3.5143 14.4265c.10934-.268.41526-.3968.68336-.2875l2.8422 1.159c.2681.1093.39684.4152.2875.6833l-3.47535 8.5233c-.10934.2681-.41526.3969-.68336.2875l-2.842199-1.1589c-.268097-.1093-.3968373-.4153-.287503-.6834z" fill="#2d5872"/><path d="m7.03986 15.2973-1.22616-.4999-3.24347 7.9545c-.10933.2681-.41526.3968-.68336.2875l-1.616035-.6589-.231887.5687c-.1093343.2681.019406.574.287503.6834l2.842199 1.1589c.2681.1093.57402-.0194.68336-.2875l3.47542-8.5233c.10919-.2681-.01948-.5741-.28757-.6834z" fill="#1d4859"/><path d="m22.7861 0h-5.3319l-.9391 4.05838v8.57232c0 .2341.2764.3585.4516.2032l2.9734-2.6341c.1028-.0911.2573-.0911.36 0l2.9734 2.6341c.1753.1553.4516.0309.4516-.2032v-8.57239z" fill="#f1c34e"/><path d="m23.2735 12.8342-2.9734-2.6342c-.1028-.091-.2573-.091-.36 0l-2.9734 2.6342c-.1752.1551-.4516.0308-.4516-.2032v-8.57241h7.2101v8.57241c-.0001.234-.2764.3584-.4517.2032z" fill="#f1c34e"/><path d="m24.3677 29.6921c.031-.0534.0587-.1095.0825-.1682.0007-.0018.0014-.0036.0021-.0052.0017-.0043.0034-.0085.0051-.0128.0011-.003.0022-.0059.0033-.0088.0008-.0019.0015-.0038.0022-.0057.0013-.0035.0026-.0071.004-.0107.0006-.0018.0013-.0036.0019-.0054.0014-.0036.0026-.0073.004-.011.0005-.0016.0012-.0033.0017-.0049.0013-.0037.0026-.0074.0038-.0111.0007-.0018.0012-.0036.0019-.0054.001-.0031.0021-.0064.0031-.0095.0007-.0023.0015-.0045.0022-.0067.0016-.0051.0033-.0103.0049-.0155.0008-.0026.0016-.0053.0023-.008.0008-.0025.0016-.0051.0024-.0076.0009-.0033.0019-.0065.0028-.0098.0006-.002.0012-.004.0017-.006.0009-.0032.0018-.0063.0026-.0095.0006-.0022.0012-.0044.0019-.0065.0008-.0032.0016-.0064.0025-.0095.0006-.0021.001-.0042.0016-.0062.0009-.0035.0018-.007.0026-.0104.0004-.0016.0008-.0033.0012-.0049.0009-.0038.0018-.0075.0027-.0113.0003-.0015.0007-.0029.001-.0044.0009-.0038.0018-.0076.0026-.0115.0003-.0013.0006-.0026.0009-.0039.0009-.004.0017-.008.0026-.012.0002-.0009.0003-.0017.0005-.0026.0021-.0097.004-.0192.0057-.0289.117-.628-.2183-1.2728-.8329-1.5234l-6.3251-2.579c-.2692.6603.0495 1.4137.711 1.6803l5.6141 2.2627c.2923.1193.5252.3397.6726.5933z" fill="#f4c892"/></svg>